<?xml version="1.0" encoding="UTF-8" standalone="no"?>
<!-- Created with Inkscape (http://www.inkscape.org/) -->
<svg xmlns:inkscape="http://www.inkscape.org/namespaces/inkscape" xmlns:rdf="http://www.w3.org/1999/02/22-rdf-syntax-ns#" xmlns="http://www.w3.org/2000/svg" xmlns:cc="http://creativecommons.org/ns#" xmlns:dc="http://purl.org/dc/elements/1.1/" xmlns:sodipodi="http://sodipodi.sourceforge.net/DTD/sodipodi-0.dtd" id="svg3550" sodipodi:docname="_svgclean2.svg" viewBox="0 0 662.09 616.63" version="1.1" inkscape:version="0.48.3.1 r9886">
  <sodipodi:namedview id="base" bordercolor="#666666" inkscape:pageshadow="2" inkscape:window-y="0" pagecolor="#ffffff" inkscape:window-maximized="0" inkscape:zoom="0.38872126" inkscape:window-x="0" inkscape:window-height="645" showgrid="false" borderopacity="1.0" inkscape:current-layer="layer1" inkscape:cx="361.73673" inkscape:cy="324.1449" inkscape:window-width="674" inkscape:pageopacity="0.0" inkscape:document-units="px"/>
  <g id="layer1" inkscape:label="Capa 1" inkscape:groupmode="layer" transform="translate(-36.589 -202.54)">
    <g id="g3470" inkscape:transform-center-x="-40.557942" inkscape:transform-center-y="97.339035" transform="matrix(3.6209,3.7896,-3.7067,3.5416,528.37,-2509.2)">
      <path id="path3478" style="fill:#a2a196" inkscape:connector-curvature="0" d="m359.93 483.48c0.003-0.6875 1.0732-3.0145 2.3787-5.1712 2.1404-3.536 2.3226-4.7378 1.855-12.233-0.61621-9.8771 1.1782-22.544 3.8465-27.153 2.2577-3.8995 2.7684-14.629 0.66477-13.965-2.0099 0.63391-8.7009 21.756-8.0058 25.272 0.52157 2.6384 0.40374 2.8444-0.97748 1.709-0.8638-0.71006-1.853-2.4164-2.1982-3.7919-0.51808-2.0642-0.85684-2.2717-1.9402-1.1883-0.72188 0.72187-1.909 2.427-2.638 3.7892-0.78958 1.4754-1.4937 1.9721-1.7415 1.2288-0.2288-0.68638 0.90815-2.9352 2.5266-4.9973 1.6184-2.0622 3.2431-5.3926 3.6104-7.4009 1.2509-6.8393 9.8367-20.234 13.956-21.773 1.6956-0.63344 1.6342-0.88288-0.77108-3.132-2.6323-2.4615-6.5484-9.7362-7.2371-13.444-0.20431-1.1-1.0381-2.4996-1.8528-3.1102-1.9657-1.4733-1.8726-3.0714 0.24787-4.2581 1.6295-0.91189 1.6238-1.0841-0.098-2.9867-1.9318-2.1347-1.4819-4.145 0.92779-4.145 1.9358 0 1.8204-1.9233-0.25286-4.2142-1.604-1.7724-1.5759-1.9025 0.52804-2.4527 1.6226-0.42432 2.0613-1.087 1.6264-2.4571-0.67845-2.1376-0.14169-2.3109 2.6051-0.84086 1.6442 0.87995 1.9343 0.69999 1.9343-1.2 0-3.658 1.9486-0.70903 2.1134 3.1984 0.0804 1.9065-0.60865 7.0664-1.5313 11.466-1.6803 8.0131-1.403 14.375 0.68282 15.664 0.6253 0.38646 2.3794-1.5104 4.1592-4.4977 1.6928-2.8413 4.0899-5.6102 5.3269-6.1532 3.1635-1.3885 2.8836-4.0241-0.45677-4.3006-3.4872-0.28861-4.7654-1.6158-3.751-3.895 0.73052-1.6415 0.84678-1.5997 1.2023 0.43278 0.29899 1.7091 1.0723 2.25 3.2171 2.25 1.5872 0 3.0755-0.65675 3.3991-1.5 0.31658-0.825 1.2166-1.5 2-1.5 0.78341 0 1.7069-0.73625 2.0522-1.6361 0.57213-1.491 0.80345-1.4772 2.607 0.15499 1.925 1.7421 1.9792 1.7184 1.9792-0.86388 0-2.655 2.2317-3.7072 3.5023-1.6513 0.34116 0.55202 1.6753 0.73888 2.9647 0.41526 1.8163-0.45586 2.5007-0.0961 3.038 1.597 0.5084 1.6018 0.99015 1.8889 1.8041 1.075 0.8139-0.8139 1.722-0.3987 3.4007 1.5549 1.2596 1.4659 2.2902 3.0453 2.2902 3.5098 0 1.6349 5.8891 0.86428 6.9199-0.90554 0.91029-1.5629 1.0225-1.5094 1.0497 0.5 0.0258 1.9106-0.49762 2.25-3.4696 2.25-1.925 0-3.5 0.18-3.5 0.4s1.575 1.975 3.5 3.9 3.5 4.1719 3.5 4.993c0 0.82116 0.70352 1.763 1.5634 2.0929 0.85986 0.32996 1.2833 1.0531 0.94098 1.607-0.34231 0.55388 0.28682 1.0071 1.3981 1.0071 1.4916 0 2.2804-0.9816 3.0133-3.75 1.22-4.6078 1.5209-13.393 0.64235-18.75-0.55577-3.3889-0.26468-4.4584 1.9052-7l2.5612-3-0.61978 2.7465c-0.59984 2.6582-0.51177 2.7256 2.7378 2.0973l3.3575-0.64917-1.905 2.1527c-1.0477 1.184-1.4977 2.1596-1 2.168 0.49775 0.008 1.5206 0.40531 2.273 0.88197 1.0946 0.69345 0.89709 1.3376-0.98851 3.2232-2.078 2.078-2.151 2.3961-0.61804 2.6914 2.2116 0.42592 2.2123 2.0072 0.002 4.4497-1.653 1.8266-1.6431 1.9875 0.20648 3.34 1.9112 1.3975 1.9075 1.4459-0.22602 2.9403-1.1931 0.83566-3.3433 3.8681-4.7782 6.7388s-3.7017 6.369-5.0372 7.7741c-3.0678 3.2275-3.0425 3.6896 0.40589 7.3977 2.9423 3.1639 8.1658 14.341 8.1658 17.473 0 0.98624 1.3443 4.4441 2.9873 7.6841 3.3935 6.6919 3.2912 6.3909 2.1732 6.3909-0.46172 0-1.3521-1.125-1.9786-2.5-1.3542-2.9721-3.182-3.2932-3.182-0.55902 0 1.0675-0.45 2.2191-1 2.559-0.55 0.33992-1-0.26112-1-1.3356s-0.8501-4.8136-1.8891-8.309-2.4872-8.4928-3.2183-11.105c-1.8014-6.4372-3.5401-6.0924-3.7636 0.74653-0.12493 3.8228 0.36097 6.3216 1.5957 8.206 0.97642 1.4902 1.6152 2.7293 1.4195 2.7535-0.19573 0.0242 0.16271 1.9698 0.79653 4.3237 1.1594 4.3055 0.84454 21.111-0.45779 24.439-0.36988 0.94505 0.11012 3.7676 1.0667 6.2723 0.95656 2.5047 1.4681 4.8252 1.1367 5.1565-0.33139 0.33139-1.3452-1.2536-2.253-3.5223-1.5388-3.846-3.4333-5.5207-3.4333-3.0351 0 1.1388-3.956 4.8194-5.2419 4.877-0.40805 0.0183-0.13154-1.6542 0.61447-3.7167 1.6733-4.6262 4.543-20.339 4.703-25.75 0.17022-5.7587 0.044-6.5-1.1069-6.5-1.1282 0-1.3719 0.54992-2.9048 6.5531-1.6423 6.4319-6.9442 11.818-13.76 13.98-6.8637 2.1764-11.155 2.3417-14.996 0.57778-8.2832-3.8039-9.9232-4.8745-11.838-7.7284-1.1508-1.7148-2.6594-5.6523-3.3527-8.75-0.69323-3.0977-1.6386-5.6321-2.1008-5.6321-1.5419 0-2.1902 7.8437-1.0915 13.205 0.59686 2.9123 1.2848 8.0939 1.5288 11.515 0.24398 3.4207 0.95322 7.1718 1.5761 8.3356 0.62288 1.1639 0.87381 2.3748 0.55762 2.691-0.82132 0.82132-4.4206-2.646-5.1578-4.9687-0.55266-1.7413-0.88859-1.566-3.0255 1.5788-1.3221 1.9457-2.4038 4.2365-2.4038 5.0906 0 0.85418-0.45 1.553-1 1.553s-0.99769-0.5625-0.99488-1.25zm14.495-20.75c-0.33992-0.55-0.14148-1 0.44098-1s1.059 0.45 1.059 1-0.19844 1-0.44098 1-0.7191-0.45-1.059-1z"/>
      <path id="path3476" style="fill:#5b5c55" inkscape:connector-curvature="0" d="m359.95 484.23c0.005-0.55 1.2636-3.2754 2.7974-6.0565 2.2509-4.0813 2.6222-5.6242 1.9252-8-1.7053-5.8129 0.9774-28.205 3.7672-31.443 0.71059-0.825 1.3907-3.975 1.5114-7 0.28396-7.1176 0.17198-8-1.0153-8-2.0365 0-9.3891 20.987-8.7878 25.084 0.33621 2.2908 0.15468 2.6468-0.90236 1.7695-0.72779-0.60401-1.3232-1.9431-1.3232-2.9758 0-2.6964-1.1119-2.345-4.3141 1.3634-1.5755 1.8246-2.3698 2.3425-1.8046 1.1768 0.55523-1.1452 1.7056-2.6599 2.5563-3.366 0.85074-0.70604 2.4447-4.269 3.5421-7.9178 2.8444-9.4569 9.98-20.134 13.456-20.134 2.2174 0 1.9385-2.3523-0.54478-4.595-2.3237-2.0986-7.8907-12.519-7.8907-14.769 0-0.78185-0.73625-1.7041-1.6361-2.0494-1.5148-0.58129-1.5148-0.76187 0-2.4357 2.0278-2.2407 2.0653-3.5494 0.14713-5.1413-1.4388-1.1941-1.1216-3.5045 0.35583-2.5914 0.40076 0.24768 1.2545 0.12535 1.8971-0.27184 0.87435-0.54038 0.81433-1.4048-0.23845-3.434-1.4111-2.7198-0.82463-3.611 1.1059-1.6804 0.70856 0.70856 0.89125 0.0764 0.58364-2.0195-0.43231-2.9455-0.35503-3.0156 2.2363-2.0304 2.483 0.94405 2.6412 0.85189 2.1111-1.2305l-0.57297-2.251 1.1844 2.309c0.93643 1.8256 0.8598 3.71-0.36598 9-0.85272 3.68-1.633 9.3152-1.7338 12.523-0.28145 8.9472 3.245 11.686 6.3339 4.9184 2.8681-6.2832 5.1799-8.5409 7.4836-7.308 2.639 1.4123 3.7919 1.3414 2.3084-0.14196-0.66-0.66-1.2-1.9725-1.2-2.9167 0-0.94416-0.5625-1.9436-1.25-2.221-0.74674-0.30132-0.54544-0.53617 0.5-0.58333 0.9625-0.0434 1.75-0.79145 1.75-1.6623 0-0.87084 0.5625-1.3938 1.25-1.1622s1.8408-0.29339 2.5628-1.1667c0.98034-1.1856 1.4446-1.2712 1.8333-0.33777 0.80443 1.9318 2.3538 1.477 2.3538-0.69098 0-2.6349 2.0485-3.7237 3.1851-1.6928 0.73053 1.3054 1.3408 1.4227 2.9424 0.56558 1.6905-0.90472 2.1089-0.74398 2.5607 0.9838 0.40343 1.5428 1.0956 1.9258 2.7358 1.5141 1.7451-0.438 2.5784 0.15946 4.0603 2.9113 1.2077 2.2426 2.3745 3.2667 3.312 2.9069 1.0102-0.38763 0.89031 0.0952-0.39669 1.5983-1.0143 1.1846-2.4191 2.1538-3.1219 2.1538-0.70277 0-1.2778 0.47039-1.2778 1.0453 0 0.6366 1.2707 0.80907 3.25 0.44111 2.984-0.55477 3.475-0.25567 6 3.6548 1.5125 2.3425 2.75 4.8965 2.75 5.6755 0 0.98092 0.69185 1.231 2.25 0.81349 1.2375-0.33164 2.5517-0.60912 2.9205-0.61663 1.8019-0.0367 3.2692-17.151 1.8413-21.478-0.93607-2.8363-0.79461-3.8435 0.93931-6.6876 1.8714-3.0695 2.0417-3.1512 2.0451-0.98175 0.003 1.9845 0.40738 2.2894 2.5037 1.8887 2.4938-0.47672 3.3961 0.57287 1.5 1.7448-1.5114 0.93407-1.1982 2.5 0.5 2.5 1.9446 0 1.8965 0.90437-0.16938 3.1872-1.5611 1.725-1.5553 1.9281 0.0903 3.1314 1.6008 1.1706 1.6161 1.4058 0.16938 2.6065-1.8976 1.5749-2.0931 4.697-0.3403 5.4336 0.89287 0.37521 0.74577 0.84415-0.5149 1.6414-0.97069 0.61383-3.1224 3.8053-4.7816 7.0921s-4.1275 6.9419-5.4851 8.1223-2.4684 2.483-2.4684 2.8947c0 0.41166 1.4625 2.3101 3.25 4.2188 3.2426 3.4624 7.0988 12.042 8.3919 18.672 0.37549 1.925 1.7672 5.23 3.0926 7.3445s2.2281 4.0263 2.0058 4.2485c-0.22221 0.22221-1.0057-0.72031-1.7412-2.0945-1.7059-3.1876-2.3583-3.1432-3.6998 0.25151l-1.0867 2.75-0.10638-2.5934c-0.0585-1.4264-1.0064-5.2093-2.1064-8.4066-1.1-3.1972-2.0025-6.5302-2.0056-7.4066-0.012-3.4303-2.1747-9.2002-3.3085-8.8269-1.6682 0.54934-2.6526 12.817-1.1821 14.733 3.2199 4.1956 4.8762 24.24 2.516 30.448-0.74575 1.9615-0.51003 3.7711 0.98541 7.5651 1.0811 2.7428 1.7436 4.9869 1.4721 4.9869-0.27143 0-1.2137-1.8-2.094-4-0.88026-2.2-1.9046-4-2.2763-4s-1.4733 1.35-2.448 3c-1.9013 3.2187-4.3694 4.1986-3.1483 1.25 0.74214-1.792 2.5778-10.637 4.6344-22.329 1.1997-6.8207 0.58384-12.33-1.3077-11.7-0.59883 0.19961-1.9021 2.9916-2.8961 6.2043-2.4797 8.0143-6.5951 12.026-15.17 14.788l-6.8212 2.1969-7.0969-2.455c-4.08-1.4113-8.2798-3.6632-9.8793-5.2971-2.6517-2.7086-4.9734-9.092-4.9734-13.674 0-1.4922-0.52435-2.0284-1.75-1.7899-1.486 0.28924-1.7424 1.4693-1.6994 7.8233 0.0497 7.3491 1.6525 21.059 3.0374 25.983 0.66858 2.3767 0.58899 2.352-1.6136-0.5-1.2742-1.65-2.6513-3.389-3.0601-3.8644-0.40879-0.47543-2.1275 1.5496-3.8194 4.5s-3.0723 4.9144-3.0675 4.3644zm21.192-44.544c0.24572-1.6742 0.16181-3.2201-0.18647-3.4354-0.34827-0.21524-0.73734 1.1546-0.86459 3.044-0.28637 4.2522 0.44447 4.5243 1.0511 0.39136zm3.486-4.206c-0.23835-1.2375-0.43337-0.225-0.43337 2.25s0.19502 3.4875 0.43337 2.25c0.23836-1.2375 0.23836-3.2625 0-4.5zm-4.1598-9.5374c-1.5538-1.5538-2.3174 1.6147-1.2324 5.1136l1.1865 3.8261 0.31258-4.1802c0.17192-2.2991 0.0519-4.4409-0.26666-4.7595zm4.0293 0.0293c-1.2065-1.2065-1.7815 0.78156-1.0011 3.4615l0.81437 2.7966 0.38097-2.8414c0.20954-1.5628 0.12212-3.1003-0.19427-3.4167zm4.4248-16.858c0-2.2541-0.47337-3.3834-1.4182-3.3834-0.78002 0-2.0745-0.25184-2.8766-0.55964-1.8763-0.72002-3.1366 3.8849-1.7648 6.4483 0.69449 1.2977 1.7434 1.7033 3.5242 1.3629 2.1188-0.40504 2.5354-1.0406 2.5354-3.8681zm10-14.383c0-0.55-0.47656-1-1.059-1-0.58246 0-0.7809 0.45-0.44098 1s0.81648 1 1.059 1c0.24254 0 0.44098-0.45 0.44098-1zm-24-6.5c0-0.825 0.45-1.5 1-1.5s1 0.675 1 1.5-0.45 1.5-1 1.5-1-0.675-1-1.5z"/>
      <path id="path3474" style="fill:#2e312d" inkscape:connector-curvature="0" d="m369 478.1c-1.1399-1.4492-2.0802-3.1367-2.0894-3.75-0.009-0.61333-0.95345 0.34736-2.0982 2.1349-1.1447 1.7875-2.2989 3.25-2.5647 3.25-0.26585 0 0.42844-1.4753 1.5428-3.2785 1.6713-2.7042 1.8692-3.9741 1.1297-7.25-0.8859-3.9246 0.22806-21.278 1.5945-24.838 0.36893-0.96144 1.2877-1.5113 2.0418-1.222 0.87516 0.33584 1.371-0.18584 1.371-1.4425 0-1.0827-0.51974-1.9686-1.155-1.9686-0.73101 0-0.59388-0.6424 0.37356-1.75 0.8407-0.9625 1.8184-4.675 2.1726-8.25 0.35425-3.575 0.90784-8.1657 1.2302-10.202 0.50279-3.1754 0.18045-4.0838-2.2677-6.3904-1.8571-1.7497-2.4172-2.8435-1.6038-3.1317 0.6875-0.24363 1.25-1.0663 1.25-1.8282s0.5625-1.1782 1.25-0.92521c0.73364 0.27002 2.5313-1.9117 4.3518-5.2814 3.1973-5.9183 3.821-6.2337 9.3982-4.7532l2.5 0.66366-2.25-1.9863c-3.3122-2.924-2.7621-8.1657 0.85699-8.1657 1.0948 0 1.893-0.69784 1.893-1.655 0-1.5069 0.17312-1.4983 1.9348 0.096 1.6526 1.4955 1.7638 2.1382 0.7622 4.405-0.64495 1.4597-1.6335 3.104-2.1968 3.654-0.56329 0.55-0.83827 0.8945-0.61107 0.76554 0.2272-0.12895 0.99414 0.54605 1.7043 1.5 1.2071 1.6215 1.4415 1.5838 3.5989-0.57859l2.3077-2.313-3 0.67097c-2.8129 0.62913-2.8752 0.58105-1-0.77078 3.4015-2.4521 5.2846-2.7405 6.6769-1.0227 0.81464 1.0051 0.86929 1.3603 0.14221 0.92425-0.6495-0.38955-1.4655-0.24776-1.8134 0.3151-0.34787 0.56286 0.15655 1.3262 1.1209 1.6962 0.98144 0.37662 1.9183 0.17811 2.128-0.45088 0.20602-0.61806 1.0879-0.85002 1.9596-0.51549 1.3082 0.50202 1.46 0.11006 0.8691-2.2444-0.94138-3.7508-3.2938-5.3527-7.3118-4.9793-2.8506 0.26494-3.2716 0.003-3.2716-2.0374 0-2.5755 1.502-4.0742 2.4866-2.4812 0.34364 0.55602 1.554 1.5082 2.6898 2.1161 1.3012 0.69636 1.8294 0.7239 1.428 0.0745-0.35035-0.56687-0.24546-1.2726 0.23309-1.5684 0.47855-0.29576 1.4074 0.6416 2.0642 2.083 0.90699 1.9906 1.4735 2.3414 2.356 1.4589 0.88253-0.88253 1.7126-0.52104 3.4521 1.5034 2.6319 3.0629 2.9636 5.8819 0.79023 6.7159-2.9528 1.1331-1.6555 3.2547 1.75 2.8619 2.759-0.31821 3.5231 0.0902 5.0578 2.7029 0.99426 1.6927 1.5302 3.5268 1.191 4.0756-0.33922 0.54886 0.0848 0.99794 0.94225 0.99794 0.85746 0 1.559 0.6126 1.559 1.3613 0 0.92794 0.83039 1.2026 2.6084 0.8627 4.3017-0.82233 5.7364-5.8411 5.1263-17.933-0.38858-7.702-0.18148-10.649 0.84332-12 1.2632-1.6654 1.3687-1.6157 1.5053 0.70905 0.0808 1.375 0.10661 3.4 0.0573 4.5-0.0493 1.1 0.13957 1.5029 0.41973 0.89534 0.594-1.2881 5.4396-0.60661 5.4396 0.76507 0 0.51-0.5625 0.85422-1.25 0.76494-3.5325-0.45871-4.552 0.11588-3.9937 2.2509l0.56911 2.1763 0.80505-2.1763c1.038-2.806 2.2186-2.8516 1.3299-0.0514-0.42273 1.3319-0.17112 2.4359 0.67426 2.9584 1.0741 0.66382 1.0959 1.0863 0.10701 2.0752-1.6024 1.6025-1.5977 4.5384 0.008 5.1546 0.84624 0.3247 0.55341 0.99481-0.90656 2.0746-1.1861 0.87723-3.1254 3.5964-4.3096 6.0425-1.1842 2.4462-3.9262 6.3874-6.0934 8.7583-4.0456 4.4258-4.7327 5.8116-2.8814 5.8116 0.58246 0 0.72107-0.5625 0.30804-1.25-0.5165-0.85971-0.22613-0.82433 0.92997 0.11331 0.92452 0.74982 1.4274 1.7735 1.1176 2.2748-0.30983 0.50131 0.009 0.78782 0.70788 0.6367 1.8662-0.40338 9.2775 14.578 9.2775 18.754 0 1.9091 0.31185 3.4712 0.69301 3.4712s0.961 0.69837 1.2886 1.5519c0.34149 0.88992 0.17385 1.2913-0.39301 0.94098-0.5437-0.33602-0.98855 0.28905-0.98855 1.389 0 3.395-1.7528 3.2887-2.309-0.13999-0.28925-1.7831-1.5853-7.517-2.88-12.742-1.9159-7.7317-2.7224-9.5534-4.3326-9.7868-1.8528-0.26858-1.9788 0.31952-1.9842 9.2633-0.004 6.8891 0.32059 9.4248 1.1656 9.1006 3.3882-1.3002 4.2892 22.915 1.0458 28.104-0.40601 0.6495-0.28085 1.4636 0.27812 1.809 0.55897 0.34546 1.0026 1.3891 0.9859 2.3191-0.0269 1.4966-0.15367 1.4789-1.103-0.15425-0.98463-1.6939-1.2325-1.5822-3.0235 1.3628-1.073 1.7644-2.1487 3.0103-2.3904 2.7686-0.24169-0.2417 0.56372-4.905 1.7898-10.363 2.7458-12.223 3.0445-23.734 0.6281-24.206-1.1839-0.23088-1.8218 0.70838-2.3335 3.4358-0.97094 5.1756-3.9726 10.757-7.1135 13.228-1.4477 1.1387-5.6527 3.0433-9.3446 4.2323l-6.7124 2.1619-7.8407-3.3878c-4.4065-1.904-8.6632-4.4984-9.7186-5.9234-1.0328-1.3946-2.3755-5.539-2.9838-9.2096-0.97277-5.8705-1.315-6.5621-2.8424-5.7446-0.95507 0.51114-1.9792 2.1805-2.2758 3.7096-0.6676 3.4419 1.7428 25.779 3.1865 29.53 1.3271 3.4479 0.82698 3.4795-1.8194 0.11514zm35.115-14.048c-0.72188-0.28888-1.5844-0.25335-1.9167 0.0789-0.33229 0.33229 0.25834 0.56864 1.3125 0.52522 1.165-0.048 1.4019-0.28494 0.60417-0.60417zm-14.216-1.2778c0.80907-0.51167 1.2584-1.143 0.99843-1.4029-0.25994-0.25993-1.3454 0.1656-2.4122 0.94563-2.1334 1.56-0.94021 1.946 1.4137 0.4573zm5.1301-14.789c0.0556-4.8125 0.28358-11.759 0.5066-15.437 0.23445-3.8663-0.0191-6.9493-0.60111-7.309-0.96898-0.59886-1.1215 1.9784-1.4055 23.746-0.0556 4.2625 0.2364 7.75 0.6489 7.75 0.4125 0.00002 0.7955-3.9375 0.85111-8.75zm-9.1565-9.8417 0.92783-8.9083-0.27297 8.2868c-0.15013 4.5577 0.0839 7.9299 0.52006 7.4937 1.3947-1.3947 2.2458-16.812 1.0425-18.884-1.0183-1.7537-1.1094-1.7082-1.2105 0.60368l-0.10936 2.5-1.0044-2.75c-1.0034-2.7472-2.8377-3.7782-2.8377-1.595 0 0.67509-0.78974 0.44028-1.9007-0.56514-1.2662-1.1458-2.1239-1.3591-2.5691-0.63868-0.94081 1.5223-2.5302 0.2966-2.5302-1.9512 0-1.0351-0.46804-2.1712-1.0401-2.5248-1.435-0.88689-0.0782 4.5768 1.6268 6.5509 1.4834 1.7176 2.6305 7.7723 2.7998 14.778 0.13854 5.7331 1.9154 6.2012 2.6396 0.69546l0.52609-4 0.77383 5.3667c0.42561 2.9517 0.98014 5.1604 1.2323 4.9083 0.25214-0.25215 0.87597-4.4672 1.3863-9.3667zm-3.7126-4.4083c0-1.925 0.2058-2.7125 0.45733-1.75 0.25152 0.9625 0.25152 2.5375 0 3.5-0.25153 0.9625-0.45733 0.175-0.45733-1.75zm8.3722 6.2708c-0.3323-0.33229-0.56864 0.25834-0.52522 1.3125 0.048 1.165 0.28494 1.4019 0.60416 0.60417 0.28887-0.72188 0.25335-1.5844-0.0789-1.9167zm11-2c-0.3323-0.33229-0.56864 0.25834-0.52522 1.3125 0.048 1.165 0.28494 1.4019 0.60416 0.60417 0.28887-0.72188 0.25335-1.5844-0.0789-1.9167zm0.0829-8.0325c-0.25029-0.95609-0.446 0.0617-0.4349 2.2617s0.21589 2.9822 0.45508 1.7383 0.23011-3.0439-0.0202-4zm8.9519-3.2934c-0.29186-1.4593-0.0544-3.1296 0.52767-3.7116 0.58209-0.58208 0.85811-1.659 0.61339-2.3932-0.85643-2.5693-2.5937 2.5686-3.1038 9.1794-0.4984 6.4591-0.49512 6.4691 0.99667 3.0296 0.8232-1.898 1.2579-4.6448 0.96606-6.1042zm-3.9767-4.195c-0.27741-0.6875-0.50439-0.125-0.50439 1.25s0.22698 1.9375 0.50439 1.25 0.27741-1.8125 0-2.5zm-17.162-6.75c-0.29294-0.47399-0.16497-1.089 0.28439-1.3668 0.44936-0.27772 0.92966-2.4139 1.0673-4.7471 0.13767-2.3332 0.47891-4.6121 0.75831-5.0642 0.2794-0.45209 0.005-0.82197-0.61003-0.82197-0.62828 0-0.78907-0.54756-0.36706-1.25 0.51028-0.84936 0.20868-0.81011-0.94098 0.12245-1.4742 1.1958-1.7021 1.1314-1.7709-0.5-0.0434-1.0298-0.29-1.3577-0.54795-0.72861-0.25795 0.62912-1.3474 0.91413-2.421 0.63337-1.3416-0.35083-1.952-0.005-1.952 1.1062 0 0.88915-0.40077 1.6166-0.89059 1.6166-0.48983 0-1.0745 1.575-1.2992 3.5-0.22474 1.925-0.0631 3.5 0.35921 3.5 0.42229 0 0.50879 0.675 0.19221 1.5-0.36449 0.94984 0.0138 1.5 1.0314 1.5 0.88384 0 1.6139 0.5625 1.6223 1.25 0.0103 0.84393 0.35201 0.76272 1.0518-0.25 0.91-1.317 1.1769-1.2946 2.1877 0.18357 1.1362 1.6616 3.2774 1.4865 2.2453-0.18357zm11.042-6.7713c0.48768-4.9765 0.45881-5.0409-1.7842-3.9824-1.9043 0.89867-2.2197 1.7075-1.9144 4.9092 0.20106 2.1083 0.76854 3.5842 1.2611 3.2798 0.49253-0.30439 0.8955-0.002 0.8955 0.67224 0 3.1207 1.0988-0.35582 1.542-4.879zm-25.542-0.28772c0-0.58246-0.45-0.7809-1-0.44098s-1 0.81648-1 1.059c0 0.24254 0.45 0.44098 1 0.44098s1-0.47656 1-1.059zm41.604-1.6702c-0.3323-0.33229-0.56864 0.25834-0.52522 1.3125 0.048 1.165 0.28494 1.4019 0.60416 0.60417 0.28887-0.72188 0.25335-1.5844-0.0789-1.9167zm-58.086 40.995c-0.41872-1.7786-1.1186-3.0129-1.5553-2.743-0.77009 0.47594-0.27896-1.3522 2.7667-10.298 1.9144-5.6232 7.3787-13.725 9.2571-13.725 0.81747 0 1.6292 0.9 1.8038 2 0.24155 1.5218 0.0917 1.6696-0.62683 0.61811-0.75822-1.1096-1.2513-0.91253-2.5024 1-1.4729 2.2516-4.4546 8.8001-4.4995 9.8819-0.0114 0.275-0.55056 1.85-1.1981 3.5-0.64756 1.65-1.5164 5.25-1.9307 8-0.74053 4.9148-0.76633 4.9449-1.5147 1.7662zm11.482-28.266c0-0.55 0.45-1 1-1s1 0.45 1 1-0.45 1-1 1-1-0.45-1-1zm-5.6014-17.431c-2.2003-4.7241-2.6911-6.7437-1.9316-7.9479 0.71322-1.1307 0.64599-2.2106-0.22438-3.6043-1.4863-2.38-1.5518-3.017-0.31009-3.017 0.51294 0 1.2371 0.95946 1.6093 2.1321 0.51253 1.6149 0.87678 1.8084 1.5014 0.79774 0.45358-0.73391 0.53819-1.798 0.18802-2.3645-0.35018-0.56659-0.71242-1.7131-0.80499-2.5478-0.0926-0.83467-0.52785-2.3789-0.96728-3.4316-0.55597-1.3319-0.45152-1.6993 0.34341-1.208 0.6283 0.38831 1.7026 2.5759 2.3873 4.8613 1.1607 3.8742 1.2955 3.9897 1.9924 1.708 0.49444-1.6189 0.58292-1.0933 0.26141 1.5528-0.77604 6.3871-0.7865 11.758-0.0295 15.155 1.2451 5.5874-0.97987 4.4317-4.0154-2.0856zm1.2511-8.8568c-0.27576-0.67973-0.52651-0.44352-0.57077 0.53768-0.0434 0.9625-0.55551 1.75-1.138 1.75-0.58246 0-0.74518 0.50779-0.36161 1.1284 0.88983 1.4398 2.777-1.6741 2.0704-3.4161zm25.382-1.2623c-0.0554-1.8302 2.2772-3.45 4.9682-3.45 2.6044 0 5 1.5918 5 3.3224 0 0.50734-0.68311 0.35551-1.518-0.3374-2.1566-1.7898-5.7699-1.7932-7.2002-0.007-0.67001 0.83686-1.2325 1.0491-1.25 0.47157zm-15.532-3.45c-0.33992-0.55-0.14148-1 0.44098-1s1.059 0.45 1.059 1-0.19844 1-0.44098 1-0.7191-0.45-1.059-1zm-8.5-4.9924c0-0.58869 0.70086-1.3393 1.5575-1.668 0.94278-0.36178 1.3141-1.2374 0.94075-2.2186-0.49282-1.2953-0.36485-1.371 0.63702-0.37648 1.0039 0.99648 0.81639 1.6519-0.94076 3.289-1.207 1.1245-2.1945 1.5628-2.1945 0.97413zm63-1.9486c0-0.58246 0.45-1.059 1-1.059s1 0.19844 1 0.44098-0.45 0.7191-1 1.059c-0.55 0.33992-1 0.14148-1-0.44098zm-64.246-1.8924c-0.2723-1.0413 0.05-1.8333 0.74617-1.8333 0.69612 0 1.0185 0.79202 0.74616 1.8333-0.26368 1.0083-0.59946 1.8333-0.74616 1.8333-0.14671 0-0.48248-0.825-0.74617-1.8333z"/>
      <path id="path3472" style="fill:#10100c" inkscape:connector-curvature="0" d="m367.93 475.98c-3.2479-5.148-3.4688-7.5374-0.74535-8.0618 1.3126-0.25277 1.7493 0.35696 1.7824 2.4885 0.0241 1.5528 0.64612 4.5108 1.3822 6.5733 0.73605 2.0625 1.1671 3.75 0.95795 3.75-0.20918 0-1.7289-2.1375-3.3772-4.75zm48.525 3.25c0.84287-2.4247 3.3062-15.12 4.2686-22 0.39224-2.8039 1.1387-4.7804 1.6995-4.5 1.046 0.52299 1.0141 8.3152-0.0654 16-0.34768 2.475-0.49578 4.5-0.32911 4.5s-0.45535 0.9-1.3822 2c-0.92691 1.1-2.4056 2.9-3.2859 4-1.6006 2-1.6006 2-0.90539 0zm5.468-12.059c0-0.85746-0.45-1.2809-1-0.94098s-1 1.0415-1 1.559c0 0.51754 0.45 0.94098 1 0.94098s1-0.70156 1-1.559zm-35.195-0.79983-2.6951-1.1964 4.4451-1.5984c3.0206-1.0862 4.45-1.2376 4.4604-0.47237 0.008 0.61934 0.42413 0.48001 0.92379-0.30963 0.7545-1.1924 1.1766-1.2131 2.4908-0.12244 0.87031 0.72229 3.0421 1.6324 4.8262 2.0224l3.2438 0.70916-4 1.1577c-4.9846 1.4427-10.18 1.3706-13.695-0.19zm-21.647-2.6412c0-1.375 0.22698-1.9375 0.50439-1.25s0.27741 1.8125 0 2.5-0.50439 0.125-0.50439-1.25zm1.8421 1c0-0.55 0.19844-1 0.44098-1s0.7191 0.45 1.059 1c0.33992 0.55 0.14148 1-0.44098 1s-1.059-0.45-1.059-1zm13.229-2.4265c-4.274-1.5523-6.1259-4.3484-6.793-10.257-0.29911-2.6492-0.81122-6.3917-1.138-8.3167-0.56655-3.3373-0.62915-3.3838-1.3465-1-0.63914 2.1239-0.765 1.8983-0.83668-1.5-0.0617-2.9268 0.17571-3.5976 0.88501-2.5 0.70051 1.084 0.9912 0.1132 1.0481-3.5 0.0697-4.4315 0.19694-4.7158 1.1187-2.5l1.04 2.5 1.0494-2.25c1.3743-2.9465 2.588-2.8856 2.017 0.10111-0.24719 1.2931 0.005 3.9981 0.56113 6.0111 0.75961 2.7511 0.71941 3.4966-0.16189 3.0022-0.77156-0.43288-0.74505-0.19733 0.0775 0.68891 0.6875 0.74068 1.25 2.3551 1.25 3.5877 0 1.2325 0.45735 2.5236 1.0163 2.8691 0.55897 0.34547 0.81366 0.95601 0.56598 1.3568-0.71943 1.1641 1.2253 3.6645 2.1133 2.7173 0.44241-0.47187 0.30728-1.037-0.30028-1.2559-0.60757-0.21889-0.89362-1.502-0.63566-2.8514 0.5759-3.0126 2.2403-2.2525 2.2403 1.0232 0 1.3101 0.36857 2.6098 0.81906 2.8882 0.45048 0.27841 0.62798-0.79564 0.39445-2.3868-0.35866-2.4437-0.0976-2.8684 1.6809-2.7344 2.5616 0.19296 2.6251 0.61356 0.35555 2.3563-1.6339 1.2546-1.6007 1.3858 0.5 1.9769 1.2375 0.34818 2.25 1.3306 2.25 2.1831 0 0.85252 0.20476 1.3453 0.45502 1.095 0.25026-0.25026 0.7325-7.3954 1.0716-15.878 0.33914-8.4827 0.81218-15.739 1.0512-16.126 0.23902-0.38676-0.004-0.85412-0.5399-1.0386-0.53597-0.18447-1.0366-1.6854-1.1126-3.3354-0.12638-2.7456 0.39273-5.5835 2.8352-15.5l0.86206-3.5 0.62813 5.1366c0.34547 2.8251 0.35965 7.7379 0.0315 10.917-0.52281 5.0655-0.39556 5.7036 1.0285 5.1571 0.89383-0.34299 1.864-0.23711 2.156 0.23529 0.29196 0.4724-0.81863 1.3293-2.468 1.9043l-2.9988 1.0454-0.0137 15.302c-0.008 8.4161-0.26863 16.252-0.58027 17.413-0.46341 1.7265-7.2367 6.6978-8.5422 6.2697-0.20011-0.0656-1.8357-0.65387-3.6347-1.3072zm-4.3694-19.573c-0.0973-2.75-0.61185-5-1.1434-5-0.54904 0-0.69648 1.3496-0.3414 3.125 0.34375 1.7188 0.625 3.9688 0.625 5s0.23327 1.875 0.51837 1.875 0.43873-2.25 0.3414-5zm18.715-34.758c-1.1783-1.1783-1.6471 0.61512-0.88612 3.3901l0.78646 2.868 0.33745-2.8414c0.1856-1.5628 0.0786-3.1003-0.23779-3.4167zm-27.417 52.758c0-1.375 0.22698-1.9375 0.50439-1.25s0.27741 1.8125 0 2.5-0.50439 0.125-0.50439-1.25zm32.342 0.47116c-2.2-0.79257-4.1125-1.4478-4.25-1.4561-0.1375-0.008-0.20514-2.6026-0.15032-5.7651 0.0761-4.3883 0.28929-5.158 0.90032-3.25 0.74532 2.3273 0.80753 2.3486 0.90032 0.30902 0.18018-3.9603 2.0981-3.6166 2.1315 0.38196 0.0298 3.5661 0.12543 3.6852 1.5 1.8679 0.80751-1.0676 1.4682-2.7551 1.4682-3.75 0-0.99488 0.51289-1.8089 1.1398-1.8089 0.62686 0 1.746-0.7875 2.4869-1.75 1.2598-1.6365 1.3299-1.6203 1.0813 0.25-0.1462 1.1-0.55039 2.455-0.8982 3.011-0.34782 0.55606-0.0474 1.811 0.66756 2.7888 1.1914 1.6294 1.3938 1.5087 2.4233-1.4446 0.66254-1.9006 0.74809-3.4548 0.20856-3.7888-0.52067-0.32239-0.30798-1.8589 0.4937-3.5664l1.4085-3-0.54576 2.8338c-0.7557 3.9239 1.1966 2.4806 2.079-1.537l0.6985-3.1802 1.2972 2.9417 1.2972 2.9417 0.0812-4.25c0.0447-2.3375 0.55778-4.25 1.1402-4.25 0.58246 0 0.80424-0.41224 0.49284-0.91608-0.31139-0.50385-0.12409-2.0788 0.41624-3.5 0.54032-1.4212 0.65604-2.585 0.25715-2.5862-0.39889-0.001-0.77615-1.4102-0.83836-3.1311-0.0927-2.563 0.066-2.8087 0.87757-1.3586 1.2039 2.1513 1.069 12.751-0.2157 16.947-0.51267 1.6745-1.425 5.5623-2.0275 8.6396-0.78153 3.992-2.0545 6.6422-4.4432 9.25-3.6945 4.0334-5.7699 4.3988-12.078 2.1262zm-34.421-6.1719c-0.13548-3.7766 2.0862-12.535 2.954-11.646 0.4542 0.46555 0.18069 3.3214-0.60779 6.3464-1.8451 7.0786-2.2496 7.9922-2.3462 5.2992zm56.588-4.9659c-0.36667-0.36666-0.62799-1.8292-0.58072-3.25 0.0844-2.5366 0.10189-2.53 0.96694 0.3664 0.90899 3.0435 0.77489 4.0447-0.38622 2.8836zm7.0403-3.0833c-0.28601-1.5125-0.84741-3.875-1.2476-5.25-0.60149-2.0668-0.30244-1.8935 1.7258 1 1.3494 1.925 2.2572 4.2875 2.0174 5.25-0.65165 2.6158-1.9071 2.1127-2.4957-1zm-70.707-0.80902c0-0.87898-0.47971-1.2625-1.0998-0.87932-0.79969 0.49424-0.79969 0.119 0-1.3752 0.60487-1.1302 1.1001-2.872 1.1006-3.8707 0.001-3.0071 5.5441-13.642 8.5034-16.316l2.7672-2.5-1.2817 2.5c-0.70493 1.375-1.9005 2.8652-2.6568 3.3115-0.75627 0.4463-1.1162 1.2302-0.79989 1.7421 0.31633 0.51184 0.0668 1.7217-0.55447 2.6885-1.0682 1.6623-1.1 1.6627-0.58551 0.008 0.96659-3.1088-0.45071-1.8564-1.9441 1.7179-1.8642 4.4616-1.8252 5.088 0.21168 3.4046 1.4904-1.2318 1.544-1.1674 0.52299 0.62756-0.62571 1.1-1.6154 3.9125-2.1992 6.25-1.0754 4.3054-1.9844 5.5382-1.9844 2.691zm60-2.382c0-1.0675 0.38499-2.1789 0.85554-2.4697 0.47055-0.29082 0.64309 0.58263 0.38343 1.941-0.56402 2.9505-1.239 3.2385-1.239 0.52876zm11.718-1.7425c-0.26539-0.44909-0.83674-2.3915-1.2696-4.3165-0.7664-3.4079-0.8086-3.4342-1.6041-1-0.68827 2.1062-0.74426 1.988-0.35549-0.75 0.25381-1.7875 0.0227-3.25-0.51353-3.25-0.53625 0-0.975-0.70156-0.975-1.559 0-0.85746 0.42087-1.2989 0.93526-0.98099 1.1245 0.69497 5.3196 11.618 4.7 12.238-0.23927 0.23927-0.65217 0.0676-0.91757-0.3815zm-30.418-6.3165c0-3.025 0.18747-4.2625 0.41659-2.75 0.22913 1.5125 0.22913 3.9875 0 5.5-0.22912 1.5125-0.41659 0.275-0.41659-2.75zm10.716 2.809c-0.008-0.93004 0.43469-1.9691 0.98469-2.309 1.2656-0.78218 1.2656 0.54163 0 2.5-0.8354 1.2927-0.97149 1.2663-0.98469-0.19098zm2.9847-3.309c0-1.375 0.45-2.5 1-2.5s1 1.125 1 2.5-0.45 2.5-1 2.5-1-1.125-1-2.5zm-5.921-6.9167c-0.0434-1.0542 0.19292-1.6448 0.52522-1.3125 0.33229 0.33229 0.36781 1.1948 0.079 1.9167-0.31923 0.79773-0.55619 0.56078-0.60417-0.60417zm-7-1c-0.0434-1.0542 0.19292-1.6448 0.52522-1.3125 0.33229 0.33229 0.36781 1.1948 0.079 1.9167-0.31923 0.79773-0.55619 0.56078-0.60417-0.60417zm24 0c-0.0434-1.0542 0.19292-1.6448 0.52522-1.3125 0.33229 0.33229 0.36781 1.1948 0.079 1.9167-0.31923 0.79773-0.55619 0.56078-0.60417-0.60417zm-48.58-0.58497c-0.3857-0.62409-1.3308-0.89315-2.1001-0.59792-0.82226 0.31553-1.3988-0.0929-1.3988-0.99084 0-0.8402 0.44322-1.2537 0.98494-0.91891 0.60389 0.37323 0.79864-0.66785 0.50339-2.691l-0.48155-3.2997 1.0896 3.4984c0.59927 1.9241 1.5972 3.8122 2.2176 4.1956 0.62044 0.38345 0.84866 0.97659 0.50716 1.3181-0.34149 0.3415-0.93648 0.11029-1.3222-0.5138zm13.617 0.33343c-0.0638-0.64252-0.40723-1.9925-0.76318-3-0.50214-1.4213-0.36907-1.5755 0.59378-0.68801 0.68253 0.62908 1.026 1.9791 0.76318 3-0.26278 1.0209-0.52998 1.3305-0.59378 0.68801zm-4.4207-3.3889c-0.3422-1.3086-0.11174-1.9152 0.63337-1.6671 1.4383 0.47887 2.1889 3.7242 0.86127 3.7242-0.52619 0-1.1988-0.9257-1.4946-2.0571zm34.662-0.65614c-0.32852-1.3089-0.31827-2.6589 0.0228-3 0.34106-0.34105 0.6201 0.35491 0.6201 1.5466s0.50625 2.0542 1.125 1.9167 1.3062 0.2375 1.5278 0.83333c0.22153 0.59584-0.29498 1.0833-1.1478 1.0833-0.85281 0-1.8194-1.071-2.1479-2.3799zm-42.682-0.69166c-1.0291-2.6817-0.81944-3.5951 0.82513-3.5951 1.6432 0 1.7376 0.53476 0.60458 3.4269-0.70047 1.7881-0.80346 1.8002-1.4297 0.16821zm4.0943-0.55143c-0.69118-2.4611-0.27771-3.8856 0.81164-2.7962 0.31944 0.31944 0.42272 1.6319 0.2295 2.9167l-0.35131 2.3359-0.68983-2.4563zm21.132-3.3055c0.54032-1.4606 1.6566-2.2381 3.2134-2.2381 1.9648 0 2.4411-0.57824 2.701-3.2788 0.23324-2.4239 0.7547-3.2061 2-3 1.2874 0.21307 1.7577-0.60526 1.9948-3.4712 0.17071-2.0625 0.65103-3.75 1.0674-3.75 0.41636 0 1.5809 2.5875 2.5878 5.75s2.0276 5.1847 2.268 4.4938c0.24047-0.69093 0.84879-1.0019 1.3518-0.69098 0.50302 0.31088 0.91459-0.16287 0.91459-1.0528 0-1.0283-0.45561-1.3443-1.25-0.86706-0.76361 0.45876-0.68466 0.0549 0.20291-1.0379 1.3933-1.7155 1.4794-1.7134 2.0985 0.0514 0.55506 1.5824 0.87187 1.4027 2.2601-1.2819 0.88801-1.7172 2.3507-3.4047 3.2504-3.7499 1.2418-0.47653 0.97784 0.51797-1.096 4.1288-3.4681 6.0385-3.4828 6.0535-6.4659 6.5452-1.375 0.22669-4.173 1.1545-6.2179 2.0617-2.0448 0.90726-4.3323 1.6496-5.0833 1.6496-0.75099 0-1.677 0.3116-2.0579 0.69244-0.38084 0.38084-1.5644 0.8255-2.6301 0.98813-1.62 0.24723-1.8019-0.0712-1.1097-1.9424zm-18.344 0.35512c-0.30822-0.49871 0.34022-0.67123 1.441-0.38337 2.335 0.61061 2.6302 1.2901 0.5604 1.2901-0.79254 0-1.6932-0.40803-2.0014-0.90674zm-6.2723-2.6059c-2.5332-1.7743-2.9531-8.6768-0.66683-10.963 0.75981-0.7598 1.3815-1.837 1.3815-2.3939 0-0.55683 0.3375-1.2211 0.75-1.4762 0.4125-0.25506 0.70718 0.95589 0.65485 2.691-0.0632 2.0974-0.6539 3.2639-1.7622 3.4804-0.9169 0.17913-1.4055 0.74897-1.0858 1.2663 0.31974 0.51735 1.0002 0.68174 1.5122 0.3653 0.51199-0.31643 0.9309 0.32468 0.9309 1.4247s0.45 2.2781 1 2.618c1.1733 0.72511 1.3599 4.5 0.22251 4.5-0.42763 0-1.7493-0.6807-2.9372-1.5127zm-6.5742-3.254c-0.92605-1.0233-1.2803-2.3123-0.83399-3.0345 0.54527-0.88226 1.136-0.46542 1.9869 1.4021 1.4938 3.2785 0.98663 3.9966-1.1529 1.6324zm-3.6958-6.5423c-0.008-1.545-0.41816-2.56-0.91053-2.2557-0.97644 0.60348-2.4802-2.3932-1.6283-3.245 0.28795-0.28794 0.55517 0.11397 0.59382 0.89313 0.0476 0.95927 0.29265 0.85543 0.75898-0.32162 0.54277-1.37 0.91705-1.0087 1.7665 1.7051 0.59278 1.8939 0.70813 4.0261 0.25634 4.7383-0.54206 0.85448-0.82664 0.33951-0.83675-1.5142zm59.985-4.691c0-0.55 0.5625-1.0143 1.25-1.0318 0.68936-0.0175 0.35516-0.70802-0.74513-1.5395-1.3848-1.0465-1.6392-1.7277-0.83135-2.2269 0.64008-0.39559 1.3534-2.2903 1.5851-4.2105 0.32658-2.7063 0.4573-2.3179 0.58135 1.7274 0.13811 4.5037 0.39978 5.1342 1.91 4.6025 1.3652-0.48064 1.2645-0.14393-0.45819 1.5314-2.4304 2.3636-3.2918 2.6639-3.2918 1.1475zm-42.5-3c-0.33992-0.55-0.14148-1 0.44098-1s1.059 0.45 1.059 1-0.19844 1-0.44098 1-0.7191-0.45-1.059-1zm-21.936-1.7069c-0.54268-1.4252-0.42782-1.5401 0.5598-0.5598 0.68342 0.67834 0.99067 1.4852 0.68278 1.7931-0.30789 0.30789-0.86705-0.24711-1.2426-1.2333zm21.446-2.7801c-1.7884-2.1548-0.44452-6.513 2.0083-6.513 1.2078 0 1.9934-0.68298 2.0128-1.75 0.0299-1.6449 0.11366-1.6421 1.3942 0.0465 1.4709 1.9396 1.0028 5.7035-0.70933 5.7035-0.57752 0-0.77146 0.27857-0.43099 0.61905 0.57317 0.57316-1.5793 3.381-2.5918 3.381-0.24694 0-1.0043-0.66916-1.6831-1.487zm20.175 0.2104c-1.926-2.3206-2.388-6.3103-0.87615-7.5651 1.1561-0.95946 1.7222-0.74897 2.889 1.0742 2.6321 4.1126 2.8345 5.6796 0.86948 6.7312-1.3094 0.70076-2.1602 0.62982-2.8824-0.24034zm22.047-1.7234c0-1.925 0.2058-2.7125 0.45733-1.75 0.25152 0.9625 0.25152 2.5375 0 3.5-0.25153 0.9625-0.45733 0.175-0.45733-1.75zm3.768 1.8136c0-0.86277 0.675-2.1289 1.5-2.8136 1.9084-1.5838 1.889-0.0985-0.0318 2.4411-1.1754 1.554-1.4682 1.6282-1.4682 0.37244zm-66.706-0.48076c0.33183-0.53692-0.052-2.2393-0.8529-3.7831-1.2027-2.3182-1.2126-2.6047-0.0569-1.6455 1.8788 1.5593 2.6819 4.9368 1.3671 5.7494-0.58335 0.36053-0.78913 0.21621-0.4573-0.3207zm63.493-7.9995c0.24532-1.2833 0.56612-2.3333 0.71289-2.3333 0.14676 0 0.46757 1.05 0.71289 2.3333 0.25975 1.3588-0.038 2.3333-0.71289 2.3333-0.6749 0-0.97264-0.97454-0.71289-2.3333zm3.2129 1.7257c0-0.51754 0.44485-1.2159 0.98855-1.5519 0.56686-0.35034 0.7345 0.0511 0.39301 0.94098-0.66479 1.7324-1.3816 2.0494-1.3816 0.61096zm-64.921-1.4757c-0.0434-1.0542 0.19292-1.6448 0.52522-1.3125 0.33229 0.33229 0.36781 1.1948 0.079 1.9167-0.31923 0.79773-0.55619 0.56078-0.60417-0.60417zm34.652-0.50317c-0.43497-1.6634-0.30483-2.0538 0.43724-1.3117 0.5811 0.5811 0.85979 1.6468 0.61931 2.3683-0.24965 0.74895-0.70294 0.29565-1.0566-1.0566zm-7.7159 0.10296c0.0527-2.3499 1.6333-2.886 3.6631-1.2424l2.1725 1.7592-2.9255 0.0832c-1.609 0.0457-2.9186-0.22423-2.9102-0.59994z"/>
    </g>
  </g>
  <metadata id="metadata10">
    <rdf:RDF>
      <cc:Work>
        <dc:format>image/svg+xml</dc:format>
        <dc:type rdf:resource="http://purl.org/dc/dcmitype/StillImage"/>
        <cc:license rdf:resource="http://creativecommons.org/licenses/publicdomain/"/>
        <dc:publisher>
          <cc:Agent rdf:about="http://openclipart.org/">
            <dc:title>Openclipart</dc:title>
          </cc:Agent>
        </dc:publisher>
      </cc:Work>
      <cc:License rdf:about="http://creativecommons.org/licenses/publicdomain/">
        <cc:permits rdf:resource="http://creativecommons.org/ns#Reproduction"/>
        <cc:permits rdf:resource="http://creativecommons.org/ns#Distribution"/>
        <cc:permits rdf:resource="http://creativecommons.org/ns#DerivativeWorks"/>
      </cc:License>
    </rdf:RDF>
  </metadata>
</svg>