<?xml version="1.0" encoding="UTF-8" standalone="no"?>
<!-- Created with Inkscape (http://www.inkscape.org/) -->
<svg xmlns:inkscape="http://www.inkscape.org/namespaces/inkscape" xmlns:rdf="http://www.w3.org/1999/02/22-rdf-syntax-ns#" xmlns="http://www.w3.org/2000/svg" xmlns:sodipodi="http://sodipodi.sourceforge.net/DTD/sodipodi-0.dtd" xmlns:cc="http://creativecommons.org/ns#" xmlns:xlink="http://www.w3.org/1999/xlink" xmlns:dc="http://purl.org/dc/elements/1.1/" xmlns:svg="http://www.w3.org/2000/svg" xmlns:ns1="http://sozi.baierouge.fr" id="svg7179" sodipodi:docname="New document 7" viewBox="0 0 640 480" version="1.1" inkscape:version="0.48.0 r9654">
  <title id="title7968">lollipo</title>
  <defs id="defs7181">
    <linearGradient id="linearGradient7940" inkscape:collect="always">
      <stop id="stop7942" style="stop-color:#ffffff" offset="0"/>
      <stop id="stop7944" style="stop-color:#ffffff;stop-opacity:0" offset="1"/>
    </linearGradient>
    <linearGradient id="linearGradient7868" inkscape:collect="always">
      <stop id="stop7870" style="stop-color:#b50000" offset="0"/>
      <stop id="stop7872" style="stop-color:#b50000;stop-opacity:0" offset="1"/>
    </linearGradient>
    <linearGradient id="linearGradient7842" inkscape:collect="always">
      <stop id="stop7844" style="stop-color:#ffc022" offset="0"/>
      <stop id="stop7846" style="stop-color:#dc0000" offset="1"/>
    </linearGradient>
    <linearGradient id="linearGradient7832" inkscape:collect="always">
      <stop id="stop7834" style="stop-color:#ffc022" offset="0"/>
      <stop id="stop7836" style="stop-color:#ff4141" offset="1"/>
    </linearGradient>
    <linearGradient id="linearGradient7824" inkscape:collect="always">
      <stop id="stop7826" style="stop-color:#ffc022" offset="0"/>
      <stop id="stop7828" style="stop-color:#ff6600" offset="1"/>
    </linearGradient>
    <radialGradient id="radialGradient7830" xlink:href="#linearGradient7824" gradientUnits="userSpaceOnUse" cy="394.8" cx="239.28" gradientTransform="matrix(.66667 -.79874 .70711 .52526 -224.57 352.75)" r="205.23" inkscape:collect="always"/>
    <linearGradient id="linearGradient7840" y2="131.49" xlink:href="#linearGradient7832" gradientUnits="userSpaceOnUse" x2="267.19" gradientTransform="matrix(.56583 .15161 -.15161 .56583 49.52 -37.825)" y1="132.78" x1="98.099" inkscape:collect="always"/>
    <linearGradient id="linearGradient7848" y2="135.36" xlink:href="#linearGradient7842" gradientUnits="userSpaceOnUse" x2="236.21" gradientTransform="matrix(.56583 .15161 -.15161 .56583 12.963 -56.231)" y1="170.21" x1="454.35" inkscape:collect="always"/>
    <linearGradient id="linearGradient7856" y2="149.56" gradientUnits="userSpaceOnUse" x2="330.44" gradientTransform="matrix(.56583 .15161 -.15161 .56583 49.52 -37.825)" y1="223.13" x1="309.79" inkscape:collect="always">
      <stop id="stop7852" style="stop-color:#ffff3e" offset="0"/>
      <stop id="stop7854" style="stop-color:#ff6600" offset="1"/>
    </linearGradient>
    <linearGradient id="linearGradient7864" y2="232.17" gradientUnits="userSpaceOnUse" x2="153.6" gradientTransform="matrix(.56583 .15161 -.15161 .56583 49.52 -37.825)" y1="371.57" x1="237.5" inkscape:collect="always">
      <stop id="stop7860" style="stop-color:#ffc022" offset="0"/>
      <stop id="stop7862" style="stop-color:#b50000;stop-opacity:0" offset="1"/>
    </linearGradient>
    <linearGradient id="linearGradient7874" y2="325.11" xlink:href="#linearGradient7868" gradientUnits="userSpaceOnUse" x2="205.31" y1="368.99" x1="204.2" inkscape:collect="always"/>
    <linearGradient id="linearGradient7902" y2="131.49" xlink:href="#linearGradient7832" gradientUnits="userSpaceOnUse" x2="267.19" gradientTransform="matrix(.17960 .50163 -.59781 .20126 431.17 131.19)" y1="132.78" x1="98.099" inkscape:collect="always"/>
    <linearGradient id="linearGradient7908" y2="135.36" xlink:href="#linearGradient7842" gradientUnits="userSpaceOnUse" x2="236.21" gradientTransform="matrix(.17960 .50163 -.59781 .20126 427.37 94.02)" y1="170.21" x1="454.35" inkscape:collect="always"/>
    <linearGradient id="linearGradient7918" y2="248.95" gradientUnits="userSpaceOnUse" x2="354.96" gradientTransform="matrix(1.215 .15303 -.28673 1.0701 3.4223 -28.894)" y1="214.1" x1="419.5" inkscape:collect="always">
      <stop id="stop7914" style="stop-color:#d76cff" offset="0"/>
      <stop id="stop7916" style="stop-color:#d76cff;stop-opacity:0" offset="1"/>
    </linearGradient>
    <linearGradient id="linearGradient7926" y2="298" gradientUnits="userSpaceOnUse" x2="375.62" gradientTransform="matrix(1.215 .15303 -.28673 1.0701 3.4223 -28.894)" y1="207.65" x1="299.46" inkscape:collect="always">
      <stop id="stop7922" style="stop-color:#f1caff" offset="0"/>
      <stop id="stop7924" style="stop-color:#f1caff;stop-opacity:0" offset="1"/>
    </linearGradient>
    <filter id="filter7934" height="1.982" width="1.1565" y="-.49098" x="-.078233" inkscape:collect="always">
      <feGaussianBlur id="feGaussianBlur7936" stdDeviation="7.6577681" inkscape:collect="always"/>
    </filter>
    <linearGradient id="linearGradient7946" y2="118.58" xlink:href="#linearGradient7940" gradientUnits="userSpaceOnUse" x2="152.31" y1="82.44" x1="77.447" inkscape:collect="always"/>
    <linearGradient id="linearGradient7958" y2="347.05" gradientUnits="userSpaceOnUse" x2="108.43" y1="339.3" x1="83.901" inkscape:collect="always">
      <stop id="stop7954" style="stop-color:#009100" offset="0"/>
      <stop id="stop7956" style="stop-color:#9ade00" offset="1"/>
    </linearGradient>
    <linearGradient id="linearGradient7966" y2="353.5" gradientUnits="userSpaceOnUse" x2="171.67" y1="372.87" x1="176.84" inkscape:collect="always">
      <stop id="stop7962" style="stop-color:#009100" offset="0"/>
      <stop id="stop7964" style="stop-color:#9ade00" offset="1"/>
    </linearGradient>
  </defs>
  <sodipodi:namedview id="base" bordercolor="#666666" inkscape:pageshadow="2" inkscape:window-y="-4" pagecolor="#ffffff" inkscape:window-height="712" inkscape:window-maximized="1" inkscape:zoom="0.77472527" inkscape:window-x="-4" showgrid="false" borderopacity="1.0" inkscape:current-layer="layer1" inkscape:cx="320" inkscape:cy="188.71529" inkscape:window-width="1280" inkscape:pageopacity="0.0" inkscape:document-units="px"/>
  <g id="layer1" inkscape:label="Layer 1" inkscape:groupmode="layer">
    <path id="path7928" sodipodi:rx="117.46099" sodipodi:ry="18.716312" style="stroke-linejoin:bevel;filter:url(#filter7934);stroke:#234f72;stroke-linecap:square;stroke-width:0.3;fill:#9eabb0" sodipodi:type="arc" d="m469.84 383.84a117.46 18.716 0 1 1 -234.92 0 117.46 18.716 0 1 1 234.92 0z" transform="matrix(.81105 0 0 .36214 77.577 263.29)" sodipodi:cy="383.83688" sodipodi:cx="352.383"/>
    <path id="path7759" sodipodi:rx="205.23404" sodipodi:ry="174.25533" style="stroke-width:0;fill:url(#radialGradient7830)" sodipodi:type="arc" d="m422.09 276.06a205.23 174.26 0 1 1 -410.47 0 205.23 174.26 0 1 1 410.47 0z" transform="matrix(.53380 .14303 -.15161 .56583 90.066 -70.798)" sodipodi:cy="276.05673" sodipodi:cx="216.85106"/>
    <path id="path7755" style="stroke-width:0;fill:url(#linearGradient7840)" inkscape:connector-curvature="0" d="m196.77 216.32c-14.42-26.56-40.7-47.99-74.07-56.93-19.68-5.28-39.404-5.57-57.562-1.67-11.72-21.6-15.606-46.58-9.063-70.995 14.591-54.455 75.455-85.457 135.96-69.245s97.732 73.498 83.141 127.95c-9.8433 36.736-40.759 62.794-78.408 70.888z"/>
    <path id="path7762" style="stroke-width:0;fill:url(#linearGradient7856)" inkscape:connector-curvature="0" d="m226.71 205.36c-8.11-38.711-39.942-72.656-84.275-84.535-31.583-8.4626-63.262-4.0508-88.411 9.836-2.9567-14.113-2.7682-28.853 1.1298-43.4 14.59-54.455 75.45-85.458 135.96-69.245 60.505 16.212 97.732 73.498 83.14 127.95-6.9718 26.02-24.524 46.674-47.544 59.391z"/>
    <path id="path7767" style="stroke-width:0;fill:url(#linearGradient7864)" inkscape:connector-curvature="0" d="m261.09 71.208c-26.38 29.472-70.92 42.952-115.26 31.072-31.58-8.463-56.808-28.123-71.645-52.724-9.617 10.744-16.824 23.603-20.722 38.151-14.591 54.453 22.618 111.73 83.127 127.94 60.505 16.213 121.39-14.785 135.98-69.24 6.9721-26.02 2.0986-52.683-11.479-75.206z"/>
    <path id="path7771" style="stroke-width:0;fill:url(#linearGradient7848)" inkscape:connector-curvature="0" d="m254.64 176.21c1.85-39.65-34.49-80.061-87.56-94.281-46.89-12.565-92.715-0.895-115.31 26.321 0.199-4.33 0.861-8.664 2.009-12.95 11.646-43.463 68.811-65.906 127.71-50.126 58.892 15.78 97.197 63.805 85.551 107.27-2.3686 8.8396-6.6311 16.815-12.401 23.769z"/>
    <path id="path7876" sodipodi:nodetypes="ccccc" style="stroke:#000000;stroke-width:.23160;fill:url(#linearGradient7958)" inkscape:connector-curvature="0" d="m132.89 193.37-77.072 254.91 14.234 3 74.888-250.21z"/>
    <path id="path7866" sodipodi:rx="49.049644" sodipodi:ry="16.134752" style="opacity:.60976;stroke-width:0;fill:url(#linearGradient7874)" sodipodi:type="arc" d="m273.65 355.44a49.05 16.135 0 1 1 -98.099 0 49.05 16.135 0 1 1 98.099 0z" transform="matrix(.66262 .17755 -.15161 .56583 41.633 -38.373)" sodipodi:cy="355.43973" sodipodi:cx="224.59575"/>
    <path id="path7886" sodipodi:rx="205.23404" sodipodi:ry="174.25533" style="fill:url(#radialGradient7830);stroke-width:0" sodipodi:type="arc" d="m422.09 276.06a205.23 174.26 0 1 1 -410.47 0 205.23 174.26 0 1 1 410.47 0z" transform="matrix(.16944 .47323 -.59781 .20126 483.77 142.88)" sodipodi:cy="276.05673" sodipodi:cx="216.85106"/>
    <path id="path7888" d="m283.31 380.56c15.994-25.346 20.699-56.609 10.108-86.189-6.2485-17.452-17.032-32.173-30.743-43.418 13.01-20.606 33.475-37.302 59.273-45.987 57.532-19.369 119.73 8.4023 138.94 62.042 19.205 53.64-11.861 112.83-69.394 132.2-38.812 13.067-79.753 4.667-108.18-18.646z" style="stroke-width:0;fill:url(#linearGradient7902)" inkscape:connector-curvature="0"/>
    <path id="path7890" d="m310.02 396.6c30.543-27.413 43.476-69.701 29.404-109-10.025-27.999-31.773-48.943-58.45-59.823 11.135-9.9943 24.601-18.013 39.971-23.188 57.533-19.369 119.73 8.4022 138.94 62.042 19.205 53.64-11.861 112.83-69.394 132.2-27.49 9.255-56.046 7.7294-80.47-2.2256z" style="stroke-width:0;fill:url(#linearGradient7918)" inkscape:connector-curvature="0"/>
    <path id="path7892" style="stroke-width:0;fill:url(#linearGradient7926)" inkscape:connector-curvature="0" d="m450.88 347.73c-41.49-3.162-78.665-28.58-92.736-67.883-10.025-27.999-6.3402-57.505 7.6455-82.075-15.127-1.1526-30.82 0.64483-46.189 5.819-57.533 19.369-88.604 78.542-69.399 132.18 19.205 53.64 81.412 81.427 138.94 62.058 27.49-9.2552 48.927-27.611 61.735-50.101z"/>
    <path id="path7894" d="m352.09 401.08c36.984-20.58 53.247-69.771 36.402-116.82-14.885-41.573-51.136-68.94-88.47-70.558 4.0456-2.2508 8.3412-4.1589 12.869-5.6832 45.92-15.46 98.293 14.321 116.99 66.531 18.693 52.21-3.3752 107.07-49.295 122.53-9.3396 3.1444-18.956 4.412-28.492 4.0016z" style="stroke-width:0;fill:url(#linearGradient7908)" inkscape:connector-curvature="0"/>
    <path id="path7896" d="m258.59 337.38-256.92 52.62 4.8938 13.67 251.79-52.29z" sodipodi:nodetypes="ccccc" style="stroke:#000000;stroke-width:.22895;fill:url(#linearGradient7966)" inkscape:connector-curvature="0"/>
    <path id="path7898" sodipodi:rx="49.049644" sodipodi:ry="16.134752" style="opacity:.60976;fill:url(#linearGradient7874);stroke-width:0" sodipodi:type="arc" d="m273.65 355.44a49.05 16.135 0 1 1 -98.099 0 49.05 16.135 0 1 1 98.099 0z" transform="matrix(.21032 .58743 -.59781 .20126 427.25 125.07)" sodipodi:cy="355.43973" sodipodi:cx="224.59575"/>
    <path id="path7938" sodipodi:rx="67.765961" sodipodi:ry="58.085106" style="stroke-width:0;fill:url(#linearGradient7946)" sodipodi:type="arc" d="m201.36 116a67.766 58.085 0 1 1 -135.53 0 67.766 58.085 0 1 1 135.53 0z" transform="translate(-6.4539 -25.816)" sodipodi:cy="116" sodipodi:cx="133.59575"/>
    <path id="path7948" sodipodi:rx="67.765961" sodipodi:ry="58.085106" style="fill:url(#linearGradient7946);stroke-width:0" sodipodi:type="arc" d="m201.36 116a67.766 58.085 0 1 1 -135.53 0 67.766 58.085 0 1 1 135.53 0z" transform="matrix(.25882 -.96593 .96593 .25882 158.64 385.4)" sodipodi:cy="116" sodipodi:cx="133.59575"/>
  </g>
  <metadata>
    <rdf:RDF>
      <cc:Work>
        <dc:format>image/svg+xml</dc:format>
        <dc:type rdf:resource="http://purl.org/dc/dcmitype/StillImage"/>
        <cc:license rdf:resource="http://creativecommons.org/licenses/publicdomain/"/>
        <dc:publisher>
          <cc:Agent rdf:about="http://openclipart.org/">
            <dc:title>Openclipart</dc:title>
          </cc:Agent>
        </dc:publisher>
        <dc:title>lollipop</dc:title>
        <dc:date>2011-05-17T06:32:33</dc:date>
        <dc:description/>
        <dc:source>https://openclipart.org/detail/139237/lollipop-by-netalloy</dc:source>
        <dc:creator>
          <cc:Agent>
            <dc:title>netalloy</dc:title>
          </cc:Agent>
        </dc:creator>
        <dc:subject>
          <rdf:Bag>
            <rdf:li>candy</rdf:li>
            <rdf:li>confectionery</rdf:li>
            <rdf:li>lollipop</rdf:li>
            <rdf:li>lolly</rdf:li>
            <rdf:li>pop</rdf:li>
            <rdf:li>sticky-pop</rdf:li>
            <rdf:li>sucker</rdf:li>
          </rdf:Bag>
        </dc:subject>
      </cc:Work>
      <cc:License rdf:about="http://creativecommons.org/licenses/publicdomain/">
        <cc:permits rdf:resource="http://creativecommons.org/ns#Reproduction"/>
        <cc:permits rdf:resource="http://creativecommons.org/ns#Distribution"/>
        <cc:permits rdf:resource="http://creativecommons.org/ns#DerivativeWorks"/>
      </cc:License>
    </rdf:RDF>
  </metadata>
</svg>