<?xml version="1.0" encoding="UTF-8" standalone="no"?>
<!-- Created with Inkscape (http://www.inkscape.org/) -->

<svg
   xmlns:dc="http://purl.org/dc/elements/1.1/"
   xmlns:cc="http://creativecommons.org/ns#"
   xmlns:rdf="http://www.w3.org/1999/02/22-rdf-syntax-ns#"
   xmlns:svg="http://www.w3.org/2000/svg"
   xmlns="http://www.w3.org/2000/svg"
   xmlns:sodipodi="http://sodipodi.sourceforge.net/DTD/sodipodi-0.dtd"
   xmlns:inkscape="http://www.inkscape.org/namespaces/inkscape"
   id="svg2"
   sodipodi:docname="spider.svg"
   viewBox="0 0 380 420"
   version="1.1"
   inkscape:version="0.92.1 r15371"
   width="405.33334"
   height="448">
  <defs
     id="defs25" />
  <sodipodi:namedview
     id="base"
     bordercolor="#666666"
     inkscape:pageshadow="2"
     inkscape:window-y="27"
     pagecolor="#ffffff"
     inkscape:window-height="736"
     inkscape:window-maximized="0"
     inkscape:zoom="2.291026"
     inkscape:window-x="0"
     showgrid="false"
     borderopacity="1.0"
     inkscape:current-layer="layer1"
     inkscape:cx="179.7709"
     inkscape:cy="196.98477"
     inkscape:window-width="1280"
     inkscape:pageopacity="0.0"
     inkscape:document-units="px" />
  <g
     id="layer1"
     inkscape:label="Ebene 1"
     inkscape:groupmode="layer"
     transform="translate(0,-632.36)">
    <path
       id="path2830"
       sodipodi:nodetypes="cccccccssccccccscccsccccccscccscccssccccccccccccccccsccccsccscccssccsscc"
       style="fill:#7e0000;stroke:#000000;stroke-width:1px;fill-opacity:1"
       d="m 117.46,653.65 c -12.273,25.908 -10.519,106.55 21.143,118.29 -8.5495,-31.945 1.5414,-47.265 16,-66.857 17.658,-21.257 45.275,-24.934 66.857,-5.7143 18.6,14.735 24.965,35.685 24,58.857 -0.88663,5.1051 -8.8987,12.007 -4.5714,14.857 37.273,-7.704 29.211,-80.396 26.286,-106.29 -0.407,-2.8344 -1.7661,-5.969 -0.57143,-8.5714 0.39733,-0.86554 1.3421,-1.8432 2.2857,-1.7143 3.0953,0.42294 4.297,4.6445 5.7143,7.4286 8.7053,39.915 20.382,87.088 -18.286,113.14 -4.0177,2.8322 -13.089,7.9904 -14.97,12.532 24.205,-0.29727 80.435,-10.249 99.542,10.897 0.53875,1.0775 -0.14691,2.7508 -1.1429,3.4286 -30.385,1.1207 -92.58,-17.434 -114.29,12.571 -1.145,2.0146 -2.1944,4.7922 -1.1429,6.8571 1.9327,3.7954 7.17,5.7841 11.429,5.7143 15.126,-8.9293 45.97,-10.489 52.571,-5.1428 20.362,30.622 61.502,86.823 77.143,132.57 1.4137,5.3534 4.4568,12.136 1.1429,16.571 -1.051,1.4068 -3.5858,1.955 -5.1429,1.1429 -14.572,-48.105 -69.382,-111.87 -76.679,-128.63 -0.55621,-6.0203 -0.0247,-7.9135 -5.035,-11.367 -6.6616,-3.9761 -37.937,4.4787 -40,8.5714 -0.27027,4.8487 10.774,0.82132 15.802,6.8176 8.0516,14.063 -10.283,143.42 -21.892,172.03 -2.1714,5.3079 0.31114,-2.706 -1.9246,5.5311 -0.22314,0.8221 -6.4001,7.8429 -6.8034,7.0926 2.338,-56.882 24.929,-114.04 24.532,-170.9 -3.0898,-7.6777 -23.895,-4.7254 -32.571,-5.1429 -2.736,1.5436 -2.2325,6.0019 -2.2857,9.1429 -0.0462,2.7268 2.0154,5.2895 1.7143,8 -1.0315,6.8509 -6.609,11.07 -12.571,13.714 -12.921,2.4016 -13.919,-12.896 -5.7143,-19.428 1.2584,-1.0142 12.248,-5.8451 11.135,-8.5682 -1.5916,-3.8943 -6.709,3.5107 -12.278,6.276 -2.2626,1.1235 -3.7323,-8.348 -6.2857,-8.5649 -5.7846,-0.44374 -9.4954,5.4717 -13.731,7.138 -2.809,-2.0911 -4.281,-8.1771 -6.8409,-10.567 -7.3651,-3.4744 -6.78,6.7725 -4,10.857 6.0269,4.5286 11.651,9.47 10.886,17.992 -2.928,7.0028 -11.974,9.7884 -17.172,3.7224 -4.0492,-6.8423 -2.62,-15.197 -2.8571,-22.857 -0.85096,-5.642 8.7659,-13.065 2.2857,-13.143 -13.424,10.012 -20.686,-7.5652 -33.714,-9.1429 -2.0936,0.74246 -2.9698,3.5409 -3.4286,5.7143 -7.5886,40.752 -13.022,125.24 -4,189.14 -1.1688,1.9735 -4.9423,-0.8255 -6.8571,-2.0882 -14.466,-58.755 -6.1852,-133.74 -1.1429,-193.91 0.84001,-14.053 19.144,-4.9386 23.191,-13.562 -43.427,-11.576 -44.08,22.965 -60.673,51.214 -26.116,37.858 -32.945,51.107 -49.277,85.305 -1.7693,0.90792 -11.061,9.0256 -12.097,7.3283 -2.7254,-4.4641 1.1202,-10.495 2.8571,-15.429 17.264,-29.212 30.272,-59.874 47.587,-89.143 6.605,-10.758 11.286,-23.418 17.556,-34.286 14.322,-18.184 35.756,-17.541 62.286,-8 3.9336,0.58756 9.3506,-0.0373 11.429,-3.4286 1.1126,-1.8158 -0.002,-4.4873 -1.1429,-6.2857 -25.114,-20.856 -57.795,-21.984 -87.429,-12 -3.1943,0.92861 -6.6638,3.6125 -9.7143,2.2857 -1.4082,-0.61253 -2.7506,-2.5364 -2.2857,-4 33.55,-16.155 58.043,-27.004 89.024,-3.4286 3.0826,2.0596 15.37,3.3188 16.766,-1.0665 -0.41646,-2.6132 -4.1274,-2.0877 -6.3621,-3.505 -3.1232,-1.9807 -6.1083,-4.1717 -9.1428,-6.2857 -3.2522,-2.2656 -6.3936,-4.6932 -9.7143,-6.8571 -43.485,-24.417 -39.401,-85.191 -24,-125.71 1.0003,-1.1652 2.4787,-2.0758 4,-2.2857 1.556,-0.21465 3.852,-0.25343 4.5714,1.1428 v -5e-4 -2e-5 z"
       inkscape:connector-curvature="0" />
    <path
       id="path3627"
       sodipodi:nodetypes="cccccccccccccccccsccc"
       style="fill:#eaeb0d;stroke:#000000;stroke-width:1px;fill-opacity:1"
       d="m 180,688.15 c -4.2334,2.1614 -12.34,2.5476 -12.871,8.4158 0.0261,2.453 3.3899,4.6544 2.4752,6.9307 -4.4034,5.075 -14.397,3.9331 -16.832,11.386 -0.23811,3.3936 6.7319,4.5318 6.4356,7.9208 -3.6101,5.4374 -10.907,7.4418 -13.861,13.861 -2.5814,8.222 5.6486,8.6835 9.406,13.366 -2.7377,15.308 -8.0804,18.805 8.9109,29.703 8.9292,3.5263 17.256,-11.677 25.248,-3.9604 1.4949,5.0243 -2.9967,10.364 0,15.347 0.9459,3.817 4.7113,3.417 6.4356,1.9802 0.66745,-5.2261 -2.3578,-10.058 0.9901,-15.347 15.826,-8.9182 11.253,7.8026 34.158,-5.9406 4.8901,-6.9433 -2.5762,-13.615 -1.4852,-21.287 3.5674,-3.8807 7.7094,-5.4479 7.4257,-11.386 -0.47862,-7.5877 -10.006,-8.0897 -12.376,-14.356 3.9384,-5.4716 9.8914,-4.6769 6.5831,-12.118 -2.3021,-2.7084 -13.732,-4.564 -12.029,-7.6838 0.84728,-1.5518 1.9701,-5.4317 1.4852,-7.0849 -3.794,-4.8518 -7.7885,-4.6266 -12.717,-8.5272 -7.5924,-3.4707 -19.549,-3.5375 -27.382,-1.2196 z"
       inkscape:connector-curvature="0" />
    <path
       id="path2816"
       style="fill:#eaeb0d;fill-opacity:1"
       d="m 103.79,992.44 3.5718,27.461 8.9296,-0.5906 -1.7859,-27.461 -10.716,0.59057 z"
       inkscape:connector-curvature="0" />
    <path
       id="path3614"
       sodipodi:nodetypes="ccccc"
       style="fill:#eaeb0d;fill-opacity:1"
       d="m 104.16,913.56 -1.5942,37.13 11.587,0.60983 0.60983,-37.809 -10.602,0.0696 z"
       inkscape:connector-curvature="0" />
    <path
       id="path3618"
       sodipodi:nodetypes="ccccc"
       style="fill:#eaeb0d;fill-opacity:1"
       d="m 243.74,916.23 -7.3179,39.334 11.892,2.4393 5.7933,-40.553 -10.367,-1.2196 z"
       inkscape:connector-curvature="0" />
    <path
       id="path3622"
       sodipodi:nodetypes="ccccc"
       style="fill:#eaeb0d;fill-opacity:1"
       d="m 228.8,992.76 -3.0491,25.003 9.7572,0.9147 6.0983,-24.698 -12.806,-1.2196 z"
       inkscape:connector-curvature="0" />
    <path
       id="path3624"
       sodipodi:nodetypes="ccccc"
       style="fill:#eaeb0d;fill-opacity:1"
       d="m 30.879,923.63 -10.843,21.285 10.442,4.4177 11.647,-20.884 -11.245,-4.8193 z"
       inkscape:connector-curvature="0" />
    <path
       id="path3626"
       sodipodi:nodetypes="ccccc"
       style="fill:#eaeb0d;fill-opacity:1"
       d="m 65.016,859.77 -15.261,28.112 13.253,5.2209 16.867,-26.506 -14.859,-6.8273 z"
       inkscape:connector-curvature="0" />
    <path
       id="path3628"
       sodipodi:nodetypes="ccccc"
       style="fill:#eaeb0d;fill-opacity:1"
       d="m 339.31,928.04 14.859,27.309 9.264,-5.6766 -12.075,-26.853 -12.048,5.2209 z"
       inkscape:connector-curvature="0" />
    <path
       id="path3630"
       sodipodi:nodetypes="ccccc"
       style="fill:#eaeb0d;fill-opacity:1"
       d="m 295.94,864.59 21.687,29.719 13.253,-7.6305 -20.08,-29.719 -14.859,7.6305 z"
       inkscape:connector-curvature="0" />
    <path
       id="path3632"
       style="fill:#eaeb0d;fill-opacity:1"
       d="m 61.595,796.51 10.227,-4.2614 3.4091,8.5227 -11.648,3.125 -1.9886,-7.3864 z"
       inkscape:connector-curvature="0" />
    <path
       id="path3634"
       style="fill:#eaeb0d;fill-opacity:1"
       d="m 89.152,786 10.511,-1.7046 h 8.5227 l -0.85228,13.92 -10.227,-0.56818 -7.6705,0.28409 -0.2841,-11.932 z"
       inkscape:connector-curvature="0" />
    <path
       id="path3636"
       sodipodi:nodetypes="ccccc"
       style="fill:#eaeb0d;fill-opacity:1"
       d="m 334.89,794.81 -9.6591,-4.2614 -2.8409,13.352 10.511,0.28409 1.9886,-9.375 z"
       inkscape:connector-curvature="0" />
    <path
       id="path3638"
       sodipodi:nodetypes="ccccc"
       style="fill:#eaeb0d;fill-opacity:1"
       d="m 307.05,787.14 -19.602,-0.56818 -1.1364,13.636 19.318,1.7045 1.4204,-14.773 z"
       inkscape:connector-curvature="0" />
    <path
       id="path3640"
       style="fill:#eaeb0d;fill-opacity:1"
       d="m 105.35,663.27 -2.8409,10.795 9.6591,1.4205 2.2727,-11.364 -9.0909,-0.85227 z"
       inkscape:connector-curvature="0" />
    <path
       id="path3642"
       sodipodi:nodetypes="ccccccc"
       style="fill:#eaeb0d;fill-opacity:1"
       d="m 98.527,696.23 -0.85227,13.352 0.56818,13.636 14.205,-0.85227 -1.1364,-13.92 -0.2841,-12.216 h -12.5 z"
       inkscape:connector-curvature="0" />
    <path
       id="path3644"
       sodipodi:nodetypes="ccccc"
       style="fill:#eaeb0d;fill-opacity:1"
       d="m 266.71,668.1 1.4205,10.511 9.9432,-1.7046 -2.5568,-10.795 -8.8068,1.9886 z"
       inkscape:connector-curvature="0" />
    <path
       id="path3648"
       sodipodi:nodetypes="cccccccc"
       style="fill:#eaeb0d;fill-opacity:1"
       d="m 269.27,696.23 0.56818,13.636 -0.56818,13.636 14.489,0.28409 0.28409,-11.364 -1.1364,-9.375 -1.4204,-8.8068 -12.216,1.9886 z"
       inkscape:connector-curvature="0" />
  </g>
  <metadata
     id="metadata22">
    <rdf:RDF>
      <cc:Work>
        <dc:format>image/svg+xml</dc:format>
        <dc:type
           rdf:resource="http://purl.org/dc/dcmitype/StillImage" />
        <cc:license
           rdf:resource="http://creativecommons.org/licenses/publicdomain/" />
        <dc:publisher>
          <cc:Agent
             rdf:about="http://openclipart.org/">
            <dc:title>Openclipart</dc:title>
          </cc:Agent>
        </dc:publisher>
        <dc:title>spider</dc:title>
        <dc:date>2010-07-15T16:53:33</dc:date>
        <dc:description>spider</dc:description>
        <dc:source>https://openclipart.org/detail/73135/spider-by-redccshirt</dc:source>
        <dc:creator>
          <cc:Agent>
            <dc:title>redccshirt</dc:title>
          </cc:Agent>
        </dc:creator>
        <dc:subject>
          <rdf:Bag>
            <rdf:li>animal</rdf:li>
            <rdf:li>nature</rdf:li>
            <rdf:li>spider</rdf:li>
          </rdf:Bag>
        </dc:subject>
      </cc:Work>
      <cc:License
         rdf:about="http://creativecommons.org/licenses/publicdomain/">
        <cc:permits
           rdf:resource="http://creativecommons.org/ns#Reproduction" />
        <cc:permits
           rdf:resource="http://creativecommons.org/ns#Distribution" />
        <cc:permits
           rdf:resource="http://creativecommons.org/ns#DerivativeWorks" />
      </cc:License>
    </rdf:RDF>
  </metadata>
</svg>
